<svg aria-hidden="true" style="position: absolute; width: 0; height: 0; overflow: hidden;" version="1.1" xmlns="http://www.w3.org/2000/svg" xmlns:xlink="http://www.w3.org/1999/xlink">
<defs>
<symbol id="icon-bell" viewBox="0 0 32 32">
<path fill="#596780" style="fill: var(--color1, #596780)" d="M25.787 19.32l-1.333-2.213c-0.28-0.493-0.533-1.427-0.533-1.973v-3.373c0-3.133-1.84-5.84-4.493-7.107-0.693-1.227-1.973-1.987-3.44-1.987-1.453 0-2.76 0.787-3.453 2.027-2.6 1.293-4.4 3.973-4.4 7.067v3.373c0 0.547-0.253 1.48-0.533 1.96l-1.347 2.227c-0.533 0.893-0.653 1.88-0.32 2.787 0.32 0.893 1.080 1.587 2.067 1.92 2.587 0.88 5.307 1.307 8.027 1.307s5.44-0.427 8.027-1.293c0.933-0.307 1.653-1.013 2-1.933s0.253-1.933-0.267-2.787z"></path>
<symbol id="icon-setting" viewBox="0 0 34 32">
<path fill="#596780" style="fill: var(--color1, #596780)" d="M30.484 11.215c-3.048 0-4.295-2.156-2.779-4.8 0.876-1.533 0.354-3.486-1.179-4.362l-2.914-1.667c-1.331-0.792-3.048-0.32-3.84 1.011l-0.185 0.32c-1.516 2.644-4.008 2.644-5.541 0l-0.185-0.32c-0.758-1.331-2.476-1.802-3.806-1.011l-2.914 1.667c-1.533 0.876-2.055 2.846-1.179 4.379 1.533 2.627 0.286 4.783-2.762 4.783-1.752 0-3.2 1.432-3.2 3.2v2.964c0 1.752 1.432 3.2 3.2 3.2 3.048 0 4.295 2.156 2.762 4.8-0.876 1.533-0.354 3.486 1.179 4.362l2.914 1.667c1.331 0.792 3.048 0.32 3.84-1.011l0.185-0.32c1.516-2.644 4.008-2.644 5.541 0l0.185 0.32c0.792 1.331 2.509 1.802 3.84 1.011l2.914-1.667c1.533-0.876 2.055-2.846 1.179-4.362-1.533-2.644-0.286-4.8 2.762-4.8 1.752 0 3.2-1.432 3.2-3.2v-2.964c-0.017-1.752-1.448-3.2-3.217-3.2zM16.842 21.371c-3.015 0-5.474-2.459-5.474-5.474s2.459-5.474 5.474-5.474c3.015 0 5.474 2.459 5.474 5.474s-2.459 5.474-5.474 5.474z"></path>
</symbol>
<path fill="#596780" style="fill: var(--color1, #596780)" d="M19.773 26.68c-0.56 1.547-2.040 2.653-3.773 2.653-1.053 0-2.093-0.427-2.827-1.187-0.427-0.4-0.747-0.933-0.933-1.48 0.173 0.027 0.347 0.040 0.533 0.067 0.307 0.040 0.627 0.080 0.947 0.107 0.76 0.067 1.533 0.107 2.307 0.107 0.76 0 1.52-0.040 2.267-0.107 0.28-0.027 0.56-0.040 0.827-0.080 0.213-0.027 0.427-0.053 0.653-0.080z"></path>
</symbol>
<symbol id="icon-heart" viewBox="0 0 36 32">
<path fill="#596780" style="fill: var(--color1, #596780)" d="M25.671 0c-3.218 0-6.098 1.564-7.893 3.964-1.796-2.4-4.676-3.964-7.893-3.964-5.458 0-9.884 4.444-9.884 9.938 0 2.116 0.338 4.071 0.924 5.884 2.809 8.889 11.467 14.204 15.751 15.662 0.604 0.213 1.6 0.213 2.204 0 4.284-1.458 12.942-6.773 15.751-15.662 0.587-1.813 0.924-3.769 0.924-5.884 0-5.493-4.427-9.938-9.884-9.938z"></path>
</symbol>
<symbol id="icon-search-normal" viewBox="0 0 32 32">
<path fill="none" stroke="#596780" style="stroke: var(--color1, #596780)" stroke-linejoin="round" stroke-linecap="round" stroke-miterlimit="4" stroke-width="2" d="M15.333 28c6.996 0 12.667-5.671 12.667-12.667s-5.671-12.667-12.667-12.667c-6.996 0-12.667 5.671-12.667 12.667s5.671 12.667 12.667 12.667z"></path>
<path fill="none" stroke="#596780" style="stroke: var(--color1, #596780)" stroke-linejoin="round" stroke-linecap="round" stroke-miterlimit="4" stroke-width="2" d="M29.333 29.333l-2.667-2.667"></path>
</symbol>
<symbol id="icon-filter" viewBox="0 0 32 32">
<path fill="none" stroke="#596780" style="stroke: var(--color1, #596780)" stroke-linejoin="round" stroke-linecap="round" stroke-miterlimit="10" stroke-width="2" d="M29.333 8.667h-8"></path>
<path fill="none" stroke="#596780" style="stroke: var(--color1, #596780)" stroke-linejoin="round" stroke-linecap="round" stroke-miterlimit="10" stroke-width="2" d="M8 8.667h-5.333"></path>
<path fill="none" stroke="#596780" style="stroke: var(--color1, #596780)" stroke-linejoin="round" stroke-linecap="round" stroke-miterlimit="10" stroke-width="2" d="M13.333 13.333c2.577 0 4.667-2.089 4.667-4.667s-2.089-4.667-4.667-4.667c-2.577 0-4.667 2.089-4.667 4.667s2.089 4.667 4.667 4.667z"></path>
<path fill="none" stroke="#596780" style="stroke: var(--color1, #596780)" stroke-linejoin="round" stroke-linecap="round" stroke-miterlimit="10" stroke-width="2" d="M29.333 23.333h-5.333"></path>
<path fill="none" stroke="#596780" style="stroke: var(--color1, #596780)" stroke-linejoin="round" stroke-linecap="round" stroke-miterlimit="10" stroke-width="2" d="M10.667 23.333h-8"></path>
<path fill="none" stroke="#596780" style="stroke: var(--color1, #596780)" stroke-linejoin="round" stroke-linecap="round" stroke-miterlimit="10" stroke-width="2" d="M18.667 28c2.577 0 4.667-2.089 4.667-4.667s-2.089-4.667-4.667-4.667c-2.577 0-4.667 2.089-4.667 4.667s2.089 4.667 4.667 4.667z"></path>
</symbol>
</defs>
</svg>
