<svg aria-hidden="true" style="position: absolute; width: 0; height: 0; overflow: hidden;" version="1.1" xmlns="http://www.w3.org/2000/svg" xmlns:xlink="http://www.w3.org/1999/xlink">
<defs>
<symbol id="icon-mark" viewBox="0 0 32 32">
<path fill="#3563e9" style="fill: var(--color1, #3563e9)" opacity="0.3" d="M16 0c8.837 0 16 7.163 16 16s-7.163 16-16 16c-8.837 0-16-7.163-16-16s7.163-16 16-16z"></path>
<path fill="#3563e9" style="fill: var(--color1, #3563e9)" d="M24 16c0 4.418-3.582 8-8 8s-8-3.582-8-8c0-4.418 3.582-8 8-8s8 3.582 8 8z"></path>
</symbol>
<symbol id="icon-swap" viewBox="0 0 32 32">
<path fill="none" stroke="#fff" style="stroke: var(--color1, #fff)" stroke-linejoin="round" stroke-linecap="round" stroke-miterlimit="4" stroke-width="2" d="M9.547 5.114v18.157"></path>
<path fill="none" stroke="#fff" style="stroke: var(--color1, #fff)" stroke-linejoin="round" stroke-linecap="round" stroke-miterlimit="4" stroke-width="2" d="M4.11 10.576l5.437-5.462 5.437 5.462"></path>
<path fill="none" stroke="#fff" style="stroke: var(--color1, #fff)" stroke-linejoin="round" stroke-linecap="round" stroke-miterlimit="4" stroke-width="2" d="M22.785 26.889v-18.157"></path>
<path fill="none" stroke="#fff" style="stroke: var(--color1, #fff)" stroke-linejoin="round" stroke-linecap="round" stroke-miterlimit="4" stroke-width="2" d="M28.222 21.428l-5.437 5.462-5.437-5.462"></path>
</symbol>
<symbol id="icon-arrow" viewBox="0 0 59 32">
<path stroke-linejoin="miter" stroke-linecap="butt" stroke-miterlimit="4" stroke-width="2.6667" d="M28.299 28.081c-2.178 0-4.356-0.84-6.004-2.489l-20.284-20.284c-0.902-0.902-0.902-2.396 0-3.298s2.396-0.902 3.298 0l20.284 20.284c1.493 1.493 3.92 1.493 5.413 0l20.284-20.284c0.902-0.902 2.395-0.902 3.298 0s0.902 2.396 0 3.298l-20.284 20.284c-1.649 1.649-3.827 2.489-6.004 2.489z"></path>
</symbol>
<symbol id="icon-bell" viewBox="0 0 32 32">
<path fill="#596780" style="fill: var(--color1, #596780)" d="M25.787 19.32l-1.333-2.213c-0.28-0.493-0.533-1.427-0.533-1.973v-3.373c0-3.133-1.84-5.84-4.493-7.107-0.693-1.227-1.973-1.987-3.44-1.987-1.453 0-2.76 0.787-3.453 2.027-2.6 1.293-4.4 3.973-4.4 7.067v3.373c0 0.547-0.253 1.48-0.533 1.96l-1.347 2.227c-0.533 0.893-0.653 1.88-0.32 2.787 0.32 0.893 1.080 1.587 2.067 1.92 2.587 0.88 5.307 1.307 8.027 1.307s5.44-0.427 8.027-1.293c0.933-0.307 1.653-1.013 2-1.933s0.253-1.933-0.267-2.787z"></path>
<symbol id="icon-setting" viewBox="0 0 34 32">
<path fill="#596780" style="fill: var(--color1, #596780)" d="M30.484 11.215c-3.048 0-4.295-2.156-2.779-4.8 0.876-1.533 0.354-3.486-1.179-4.362l-2.914-1.667c-1.331-0.792-3.048-0.32-3.84 1.011l-0.185 0.32c-1.516 2.644-4.008 2.644-5.541 0l-0.185-0.32c-0.758-1.331-2.476-1.802-3.806-1.011l-2.914 1.667c-1.533 0.876-2.055 2.846-1.179 4.379 1.533 2.627 0.286 4.783-2.762 4.783-1.752 0-3.2 1.432-3.2 3.2v2.964c0 1.752 1.432 3.2 3.2 3.2 3.048 0 4.295 2.156 2.762 4.8-0.876 1.533-0.354 3.486 1.179 4.362l2.914 1.667c1.331 0.792 3.048 0.32 3.84-1.011l0.185-0.32c1.516-2.644 4.008-2.644 5.541 0l0.185 0.32c0.792 1.331 2.509 1.802 3.84 1.011l2.914-1.667c1.533-0.876 2.055-2.846 1.179-4.362-1.533-2.644-0.286-4.8 2.762-4.8 1.752 0 3.2-1.432 3.2-3.2v-2.964c-0.017-1.752-1.448-3.2-3.217-3.2zM16.842 21.371c-3.015 0-5.474-2.459-5.474-5.474s2.459-5.474 5.474-5.474c3.015 0 5.474 2.459 5.474 5.474s-2.459 5.474-5.474 5.474z"></path>
</symbol>
<path fill="#596780" style="fill: var(--color1, #596780)" d="M19.773 26.68c-0.56 1.547-2.040 2.653-3.773 2.653-1.053 0-2.093-0.427-2.827-1.187-0.427-0.4-0.747-0.933-0.933-1.48 0.173 0.027 0.347 0.040 0.533 0.067 0.307 0.040 0.627 0.080 0.947 0.107 0.76 0.067 1.533 0.107 2.307 0.107 0.76 0 1.52-0.040 2.267-0.107 0.28-0.027 0.56-0.040 0.827-0.080 0.213-0.027 0.427-0.053 0.653-0.080z"></path>
</symbol>
<symbol id="icon-profile-2user" viewBox="0 0 32 32">
<path fill="#90a3bf" style="fill: var(--color1, #90a3bf)" d="M12 2.667c-3.493 0-6.333 2.84-6.333 6.333 0 3.427 2.68 6.2 6.173 6.32 0.107-0.013 0.213-0.013 0.293 0 0.027 0 0.040 0 0.067 0 0.013 0 0.013 0 0.027 0 3.413-0.12 6.093-2.893 6.107-6.32 0-3.493-2.84-6.333-6.333-6.333z"></path>
<path fill="#90a3bf" style="fill: var(--color1, #90a3bf)" d="M18.773 18.867c-3.72-2.48-9.787-2.48-13.533 0-1.693 1.133-2.627 2.667-2.627 4.307s0.933 3.16 2.613 4.28c1.867 1.253 4.32 1.88 6.773 1.88s4.907-0.627 6.773-1.88c1.68-1.133 2.613-2.653 2.613-4.307-0.013-1.64-0.933-3.16-2.613-4.28z"></path>
<path fill="#90a3bf" style="fill: var(--color1, #90a3bf)" d="M26.653 9.787c0.213 2.587-1.627 4.853-4.173 5.16-0.013 0-0.013 0-0.027 0h-0.040c-0.080 0-0.16 0-0.227 0.027-1.293 0.067-2.48-0.347-3.373-1.107 1.373-1.227 2.16-3.067 2-5.067-0.093-1.080-0.467-2.067-1.027-2.907 0.507-0.253 1.093-0.413 1.693-0.467 2.613-0.227 4.947 1.72 5.173 4.36z"></path>
<path fill="#90a3bf" style="fill: var(--color1, #90a3bf)" d="M29.32 22.12c-0.107 1.293-0.933 2.413-2.32 3.173-1.333 0.733-3.013 1.080-4.68 1.040 0.96-0.867 1.52-1.947 1.627-3.093 0.133-1.653-0.653-3.24-2.227-4.507-0.893-0.707-1.933-1.267-3.067-1.68 2.947-0.853 6.653-0.28 8.933 1.56 1.227 0.987 1.853 2.227 1.733 3.507z"></path>
</symbol>
<symbol id="icon-car" viewBox="0 0 32 32">
<path fill="#90a3bf" style="fill: var(--color1, #90a3bf)" d="M16 2.667c-7.36 0-13.333 5.973-13.333 13.333s5.973 13.333 13.333 13.333c7.36 0 13.333-5.973 13.333-13.333s-5.96-13.333-13.333-13.333z"></path>
<path fill="#fff" style="fill: var(--color2, #fff)" d="M16 5.333c5.891 0 10.667 4.776 10.667 10.667s-4.776 10.667-10.667 10.667c-5.891 0-10.667-4.776-10.667-10.667s4.776-10.667 10.667-10.667z"></path>
<path fill="#90a3bf" style="fill: var(--color1, #90a3bf)" d="M16 8c-4.416 0-8 3.584-8 8s3.584 8 8 8c4.416 0 8-3.584 8-8s-3.576-8-8-8z"></path>
<path fill="#fff" style="fill: var(--color2, #fff)" d="M16 10.667c2.946 0 5.333 2.388 5.333 5.333s-2.388 5.333-5.333 5.333c-2.946 0-5.333-2.388-5.333-5.333s2.388-5.333 5.333-5.333z"></path>
<path fill="#90a3bf" style="fill: var(--color1, #90a3bf)" d="M14.667 22.667h2.667v5.333h-2.667v-5.333z"></path>
<path fill="#90a3bf" style="fill: var(--color1, #90a3bf)" d="M22.667 14.667h5.333v2.667h-5.333v-2.667z"></path>
<path fill="#90a3bf" style="fill: var(--color1, #90a3bf)" d="M4 14.667h5.333v2.667h-5.333v-2.667z"></path>
</symbol>
<symbol id="icon-gas-station" viewBox="0 0 32 32">
<path fill="#90a3bf" style="fill: var(--color1, #90a3bf)" d="M29.787 12.44l-2.667-1.333c-0.493-0.24-1.107-0.053-1.347 0.44-0.253 0.507-0.053 1.107 0.44 1.347l2.12 1.053v6.387l-5 0.013v-13.68c0-2.667-1.787-4-4-4h-10.667c-2.213 0-4 1.333-4 4v21.667h-2c-0.547 0-1 0.453-1 1s0.453 1 1 1h22.667c0.547 0 1-0.453 1-1s-0.453-1-1-1h-2v-5.987l6-0.013c0.56 0 1-0.453 1-1v-8c0-0.373-0.213-0.72-0.547-0.893zM8 9.187c0-1.853 1.133-2.52 2.52-2.52h6.973c1.373 0 2.507 0.667 2.507 2.52v1.64c0 1.84-1.133 2.507-2.52 2.507h-6.96c-1.387 0-2.52-0.667-2.52-2.52v-1.627zM8.667 16.333h4c0.547 0 1 0.453 1 1s-0.453 1-1 1h-4c-0.547 0-1-0.453-1-1s0.453-1 1-1z"></path>
</symbol>
<symbol id="icon-heart" viewBox="0 0 36 32">
<path d="M25.671 0c-3.218 0-6.098 1.564-7.893 3.964-1.796-2.4-4.676-3.964-7.893-3.964-5.458 0-9.884 4.444-9.884 9.938 0 2.116 0.338 4.071 0.924 5.884 2.809 8.889 11.467 14.204 15.751 15.662 0.604 0.213 1.6 0.213 2.204 0 4.284-1.458 12.942-6.773 15.751-15.662 0.587-1.813 0.924-3.769 0.924-5.884 0-5.493-4.427-9.938-9.884-9.938z"></path>
</symbol>
<symbol id="icon-search-normal" viewBox="0 0 32 32">
<path fill="none" stroke="#596780" style="stroke: var(--color1, #596780)" stroke-linejoin="round" stroke-linecap="round" stroke-miterlimit="4" stroke-width="2" d="M15.333 28c6.996 0 12.667-5.671 12.667-12.667s-5.671-12.667-12.667-12.667c-6.996 0-12.667 5.671-12.667 12.667s5.671 12.667 12.667 12.667z"></path>
<path fill="none" stroke="#596780" style="stroke: var(--color1, #596780)" stroke-linejoin="round" stroke-linecap="round" stroke-miterlimit="4" stroke-width="2" d="M29.333 29.333l-2.667-2.667"></path>
</symbol>
<symbol id="icon-filter" viewBox="0 0 32 32">
<path fill="none" stroke="#596780" style="stroke: var(--color1, #596780)" stroke-linejoin="round" stroke-linecap="round" stroke-miterlimit="10" stroke-width="2" d="M29.333 8.667h-8"></path>
<path fill="none" stroke="#596780" style="stroke: var(--color1, #596780)" stroke-linejoin="round" stroke-linecap="round" stroke-miterlimit="10" stroke-width="2" d="M8 8.667h-5.333"></path>
<path fill="none" stroke="#596780" style="stroke: var(--color1, #596780)" stroke-linejoin="round" stroke-linecap="round" stroke-miterlimit="10" stroke-width="2" d="M13.333 13.333c2.577 0 4.667-2.089 4.667-4.667s-2.089-4.667-4.667-4.667c-2.577 0-4.667 2.089-4.667 4.667s2.089 4.667 4.667 4.667z"></path>
<path fill="none" stroke="#596780" style="stroke: var(--color1, #596780)" stroke-linejoin="round" stroke-linecap="round" stroke-miterlimit="10" stroke-width="2" d="M29.333 23.333h-5.333"></path>
<path fill="none" stroke="#596780" style="stroke: var(--color1, #596780)" stroke-linejoin="round" stroke-linecap="round" stroke-miterlimit="10" stroke-width="2" d="M10.667 23.333h-8"></path>
<path fill="none" stroke="#596780" style="stroke: var(--color1, #596780)" stroke-linejoin="round" stroke-linecap="round" stroke-miterlimit="10" stroke-width="2" d="M18.667 28c2.577 0 4.667-2.089 4.667-4.667s-2.089-4.667-4.667-4.667c-2.577 0-4.667 2.089-4.667 4.667s2.089 4.667 4.667 4.667z"></path>
</symbol>
</defs>
</svg>
